<svg width="670" height="666" viewBox="0 0 670 666" fill="none" xmlns="http://www.w3.org/2000/svg">
<path d="M435.052 467.948L534.683 465.477L484.092 403.094L454.546 426.269L435.052 467.948Z" fill="#2E2E2E"/>
<path d="M212.184 212.094L92.6288 0L128.216 189L212.184 212.094Z" fill="#828282"/>
<path d="M288.96 4.69098L92.6288 0L212.184 212.094L277.437 221.906L288.96 4.69098Z" fill="#B2B2B2"/>
<path d="M344.853 145.671L288.851 6.63225L277.439 221.907L344.853 145.671Z" fill="url(#paint0_linear_2105_5322)"/>
<path d="M365.047 161.283L330.96 41.6582L288.961 4.69043L344.853 145.67L365.047 161.283Z" fill="#C6C6C6"/>
<path d="M212.185 212.095L128.217 189L94.9105 276.759L212.185 212.095Z" fill="#A4A4A4"/>
<path d="M100.272 189L94.9105 276.759L128.217 189H100.272Z" fill="#424242"/>
<path d="M300.684 350.643L128.218 305.894L27.7167 376.389L215.946 400.524L300.684 350.643Z" fill="#262626"/>
<path d="M313.935 270.277L300.682 350.644L128.216 305.895L313.935 270.277Z" fill="url(#paint1_linear_2105_5322)"/>
<path d="M245.491 179.338L313.935 270.277L128.216 305.895L245.491 179.338Z" fill="#BCBCBC"/>
<path d="M323.427 194.571L245.491 179.338L313.935 270.277L323.427 194.571Z" fill="#979797"/>
<path d="M395.962 239.429L323.427 194.57L313.935 270.276L395.962 239.429Z" fill="#AFAFAF"/>
<path d="M344.851 145.671L323.427 194.571L279.338 185.95L344.851 145.671Z" fill="#C0C0C0"/>
<path d="M395.962 178.448L344.852 145.671L323.427 194.571L395.962 178.448Z" fill="#FBFBFB"/>
<path d="M395.962 239.43V178.448L323.427 194.571L395.962 239.43Z" fill="#DEDEDE"/>
<path d="M364.127 158.033L480.711 91.3492L506.507 161.284L395.964 178.447L364.127 158.033Z" fill="url(#paint2_linear_2105_5322)"/>
<path d="M628.342 138.619L395.964 178.447V239.43L628.342 138.619Z" fill="#F7F7F7"/>
<path d="M395.962 312.536V239.431L313.935 270.277L300.682 350.644L395.962 312.536Z" fill="url(#paint3_linear_2105_5322)"/>
<path d="M214.776 212.485L212.185 212.095L94.9108 276.759L27.7167 376.39L128.218 305.895L214.776 212.485Z" fill="#E4E4E4"/>
<path d="M215.945 400.524L207.624 551.926L280.659 489.783L300.683 350.644L215.945 400.524Z" fill="url(#paint4_linear_2105_5322)"/>
<path d="M395.962 312.536L300.683 350.644L280.658 489.783L373.258 403.095L395.962 312.536Z" fill="url(#paint5_linear_2105_5322)"/>
<path d="M470.458 392.233L395.963 312.536L373.258 403.095L470.458 392.233Z" fill="#747474"/>
<path d="M282.799 487.782L413.757 513.488L470.459 392.232L373.258 403.095L282.799 487.782Z" fill="#727272"/>
<path d="M395.964 239.431L444.444 297.083L470.459 392.233L395.964 312.536V239.431Z" fill="url(#paint6_linear_2105_5322)"/>
<path d="M628.342 138.619L444.444 297.082L395.964 239.43L628.342 138.619Z" fill="#494949"/>
<path d="M628.341 138.619L521.309 260.284L444.443 297.082L628.341 138.619Z" fill="#2C2C2C"/>
<path d="M608.146 232.338L567.098 208.243L521.308 260.284L608.146 232.338Z" fill="#C8C8C8"/>
<path d="M536.392 362.095L548.024 341.05L608.147 232.338L519.058 261.364L444.443 297.081L470.458 392.231L454.545 426.268L536.392 362.095Z" fill="#353535"/>
<path d="M669.409 408.936L548.024 341.052L536.392 362.096L669.409 408.936Z" fill="#B7B7B7"/>
<path d="M115.905 600.055L245.492 602.856L340.752 499.124L282.8 487.782L207.624 551.925L115.905 600.055Z" fill="#080808"/>
<path d="M190.281 474.359L115.905 600.055L207.624 551.925L190.281 474.359Z" fill="#191919"/>
<path d="M168.266 394.413L190.28 474.359L207.624 551.926L215.946 400.524L168.266 394.413Z" fill="#101010"/>
<path d="M168.265 394.413L0 534.632L115.904 600.056L190.28 474.359L168.265 394.413Z" fill="#252525"/>
<path d="M27.7167 376.389L139.34 418.518L168.266 394.413L27.7167 376.389Z" fill="#171717"/>
<path d="M0 534.633L107.843 406.626L139.339 418.519L0 534.633Z" fill="#7F7F7F"/>
<path d="M484.092 403.094L534.682 465.477L669.41 408.935L536.392 362.095L484.092 403.094Z" fill="#696969"/>
<path d="M437.722 612.448L397.703 509.307L340.752 498.354L320.477 517.878L457.616 665.999L437.722 612.448Z" fill="#242424"/>
<path d="M455.205 612.449L447.984 465.568L435.051 465.878L413.757 512.738L396.753 508.967L457.616 666L455.205 612.449Z" fill="#585858"/>
<defs>
<linearGradient id="paint0_linear_2105_5322" x1="235.23" y1="169.286" x2="280.69" y2="117.425" gradientUnits="userSpaceOnUse">
<stop stop-color="#717171"/>
<stop offset="1" stop-color="#9C9C9C"/>
</linearGradient>
<linearGradient id="paint1_linear_2105_5322" x1="128.216" y1="310.456" x2="313.935" y2="310.456" gradientUnits="userSpaceOnUse">
<stop stop-color="#9C9C9C"/>
<stop offset="1" stop-color="#717171"/>
</linearGradient>
<linearGradient id="paint2_linear_2105_5322" x1="364.127" y1="134.898" x2="438.543" y2="134.898" gradientUnits="userSpaceOnUse">
<stop stop-color="#717171"/>
<stop offset="1" stop-color="#9C9C9C"/>
</linearGradient>
<linearGradient id="paint3_linear_2105_5322" x1="300.682" y1="295.043" x2="395.962" y2="295.043" gradientUnits="userSpaceOnUse">
<stop stop-color="#717171"/>
<stop offset="0.19" stop-color="#797979"/>
<stop offset="1" stop-color="#9C9C9C"/>
</linearGradient>
<linearGradient id="paint4_linear_2105_5322" x1="221.606" y1="397.123" x2="286.24" y2="504.686" gradientUnits="userSpaceOnUse">
<stop stop-color="#4D4D4D"/>
<stop offset="0.28" stop-color="#6D6D6D"/>
<stop offset="0.55" stop-color="#878787"/>
<stop offset="0.8" stop-color="#969696"/>
<stop offset="1" stop-color="#9C9C9C"/>
</linearGradient>
<linearGradient id="paint5_linear_2105_5322" x1="306.024" y1="347.433" x2="362.135" y2="440.823" gradientUnits="userSpaceOnUse">
<stop stop-color="#717171"/>
<stop offset="0.17" stop-color="#7A7A7A"/>
<stop offset="0.69" stop-color="#939393"/>
<stop offset="1" stop-color="#9C9C9C"/>
</linearGradient>
<linearGradient id="paint6_linear_2105_5322" x1="395.964" y1="315.827" x2="470.459" y2="315.827" gradientUnits="userSpaceOnUse">
<stop stop-color="#717171"/>
<stop offset="0.17" stop-color="#7A7A7A"/>
<stop offset="0.69" stop-color="#939393"/>
<stop offset="1" stop-color="#9C9C9C"/>
</linearGradient>
</defs>
</svg>
