<svg width="793" height="789" viewBox="0 0 793 789" fill="none" xmlns="http://www.w3.org/2000/svg">
<path d="M99.5397 335.115L93.0363 390.337" stroke="#464646" stroke-width="1.2" stroke-miterlimit="10"/>
<path d="M99.5409 335.115L162.007 352.6" stroke="#464646" stroke-width="1.2" stroke-miterlimit="10"/>
<path d="M93.2132 390.832L191.15 437.512" stroke="#464646" stroke-width="1.2" stroke-miterlimit="10"/>
<path d="M468.891 232.61L787.281 177.084" stroke="#464646" stroke-width="1.2" stroke-miterlimit="10"/>
<path d="M479.302 249.962L787.281 177.084" stroke="#464646" stroke-width="1.2" stroke-miterlimit="10"/>
<path d="M617.241 249.962L787.279 177.084" stroke="#464646" stroke-width="1.2" stroke-miterlimit="10"/>
<path d="M575.597 137.178L617.241 249.96" stroke="#464646" stroke-width="1.2" stroke-miterlimit="10"/>
<path d="M532.224 383.338L787.281 177.084" stroke="#464646" stroke-width="1.2" stroke-miterlimit="10"/>
<path d="M630.686 340.4L787.28 177.084" stroke="#464646" stroke-width="1.2" stroke-miterlimit="10"/>
<path d="M617.241 249.961L733.275 300.705" stroke="#464646" stroke-width="1.2" stroke-miterlimit="10"/>
<path d="M733.278 300.704L623.966 309.147" stroke="#464646" stroke-width="1.2" stroke-miterlimit="10"/>
<path d="M551.746 454.265L630.689 340.399" stroke="#464646" stroke-width="1.2" stroke-miterlimit="10"/>
<path d="M630.685 340.4L617.241 249.961" stroke="#464646" stroke-width="1.2" stroke-miterlimit="10"/>
<path d="M630.687 340.399L532.224 383.336" stroke="#464646" stroke-width="1.2" stroke-miterlimit="10"/>
<path d="M630.686 340.4L733.276 300.704" stroke="#464646" stroke-width="1.2" stroke-miterlimit="10"/>
<path d="M733.275 300.704L617.241 430.192" stroke="#464646" stroke-width="1.2" stroke-miterlimit="10"/>
<path d="M638.931 461.414L730.064 304.287" stroke="#464646" stroke-width="1.2" stroke-miterlimit="10"/>
<path d="M551.746 454.267L617.245 430.193" stroke="#464646" stroke-width="1.2" stroke-miterlimit="10"/>
<path d="M638.931 461.416L791.18 516.077" stroke="#464646" stroke-width="1.2" stroke-miterlimit="10"/>
<path d="M791.181 516.075L586.116 404.681" stroke="#464646" stroke-width="1.2" stroke-miterlimit="10"/>
<path d="M581.455 516.077L638.93 461.416" stroke="#464646" stroke-width="1.2" stroke-miterlimit="10"/>
<path d="M638.931 461.416L633.73 583.088" stroke="#464646" stroke-width="1.2" stroke-miterlimit="10"/>
<path d="M633.73 583.086L787.282 516.075" stroke="#464646" stroke-width="1.2" stroke-miterlimit="10"/>
<path d="M787.281 516.075H581.455" stroke="#464646" stroke-width="1.2" stroke-miterlimit="10"/>
<path d="M581.455 516.075L633.729 583.086" stroke="#464646" stroke-width="1.2" stroke-miterlimit="10"/>
<path d="M581.455 516.077L617.242 430.193" stroke="#464646" stroke-width="1.2" stroke-miterlimit="10"/>
<path d="M638.932 461.414L586.116 404.681" stroke="#464646" stroke-width="1.2" stroke-miterlimit="10"/>
<path d="M532.224 577.229L633.73 583.085" stroke="#464646" stroke-width="1.2" stroke-miterlimit="10"/>
<path d="M633.73 583.088L500.99 587.643" stroke="#464646" stroke-width="1.2" stroke-miterlimit="10"/>
<path d="M532.225 577.229L460.003 601.958" stroke="#464646" stroke-width="1.2" stroke-miterlimit="10"/>
<path d="M460.003 601.958L538.728 549.58" stroke="#464646" stroke-width="1.2" stroke-miterlimit="10"/>
<path d="M538.727 549.58L532.224 577.229" stroke="#464646" stroke-width="1.2" stroke-miterlimit="10"/>
<path d="M538.726 549.582L575.598 503.06" stroke="#464646" stroke-width="1.2" stroke-miterlimit="10"/>
<path d="M575.597 503.06L581.454 516.076" stroke="#464646" stroke-width="1.2" stroke-miterlimit="10"/>
<path d="M581.455 516.075L538.726 549.581" stroke="#464646" stroke-width="1.2" stroke-miterlimit="10"/>
<path d="M633.73 583.086L557.164 546.652" stroke="#464646" stroke-width="1.2" stroke-miterlimit="10"/>
<path d="M557.164 546.652L581.456 516.075" stroke="#464646" stroke-width="1.2" stroke-miterlimit="10"/>
<path d="M557.163 546.652L532.224 577.229" stroke="#464646" stroke-width="1.2" stroke-miterlimit="10"/>
<path d="M575.6 503.06L496.114 655.965" stroke="#464646" stroke-width="1.2" stroke-miterlimit="10"/>
<path d="M496.114 655.963L532.225 577.229" stroke="#464646" stroke-width="1.2" stroke-miterlimit="10"/>
<path d="M517.697 786.403L532.187 586.577" stroke="#464646" stroke-width="1.2" stroke-miterlimit="10"/>
<path d="M496.112 655.964L443.086 516.075" stroke="#464646" stroke-width="1.2" stroke-miterlimit="10"/>
<path d="M496.114 655.964L460.003 601.959" stroke="#464646" stroke-width="1.2" stroke-miterlimit="10"/>
<path d="M496.112 655.966L437.192 618.581" stroke="#464646" stroke-width="1.2" stroke-miterlimit="10"/>
<path d="M517.127 788.943L503.103 640.725" stroke="#464646" stroke-width="1.2" stroke-miterlimit="10"/>
<path d="M460.003 601.959L517.697 786.402" stroke="#464646" stroke-width="1.2" stroke-miterlimit="10"/>
<path d="M517.696 786.402L422.95 628.962" stroke="#464646" stroke-width="1.2" stroke-miterlimit="10"/>
<path d="M376.069 663.123L517.698 786.402" stroke="#464646" stroke-width="1.2" stroke-miterlimit="10"/>
<path d="M551.746 454.263L575.601 503.057" stroke="#464646" stroke-width="1.2" stroke-miterlimit="10"/>
<path d="M532.224 383.338L551.743 454.266" stroke="#464646" stroke-width="1.2" stroke-miterlimit="10"/>
<path d="M474.968 397.333L532.225 383.338" stroke="#464646" stroke-width="1.2" stroke-miterlimit="10"/>
<path d="M479.302 307.864L532.223 383.337" stroke="#464646" stroke-width="1.2" stroke-miterlimit="10"/>
<path d="M479.304 307.864L474.968 397.333" stroke="#464646" stroke-width="1.2" stroke-miterlimit="10"/>
<path d="M474.968 397.333L575.6 503.06" stroke="#464646" stroke-width="1.2" stroke-miterlimit="10"/>
<path d="M551.743 454.263L538.726 549.579" stroke="#464646" stroke-width="1.2" stroke-miterlimit="10"/>
<path d="M443.086 516.076L575.597 503.06" stroke="#464646" stroke-width="1.2" stroke-miterlimit="10"/>
<path d="M474.966 397.333L443.086 516.076" stroke="#464646" stroke-width="1.2" stroke-miterlimit="10"/>
<path d="M617.242 249.961L479.302 307.864" stroke="#464646" stroke-width="1.2" stroke-miterlimit="10"/>
<path d="M479.303 307.865L468.891 232.611" stroke="#464646" stroke-width="1.2" stroke-miterlimit="10"/>
<path d="M468.891 232.611L479.303 249.963" stroke="#464646" stroke-width="1.2" stroke-miterlimit="10"/>
<path d="M479.302 249.961H619.847" stroke="#464646" stroke-width="1.2" stroke-miterlimit="10"/>
<path d="M538.726 220.229L575.598 137.178" stroke="#464646" stroke-width="1.2" stroke-miterlimit="10"/>
<path d="M575.601 137.178L551.746 277.456" stroke="#464646" stroke-width="1.2" stroke-miterlimit="10"/>
<path d="M401.663 191.401L468.893 232.608" stroke="#464646" stroke-width="1.2" stroke-miterlimit="10"/>
<path d="M381.286 253.858L401.662 191.401" stroke="#464646" stroke-width="1.2" stroke-miterlimit="10"/>
<path d="M381.286 253.861L468.892 232.611" stroke="#464646" stroke-width="1.2" stroke-miterlimit="10"/>
<path d="M381.286 253.857L479.303 307.862" stroke="#464646" stroke-width="1.2" stroke-miterlimit="10"/>
<path d="M479.305 307.864L370.868 352.598" stroke="#464646" stroke-width="1.2" stroke-miterlimit="10"/>
<path d="M370.868 352.596L381.288 253.857" stroke="#464646" stroke-width="1.2" stroke-miterlimit="10"/>
<path d="M370.868 352.596L474.969 397.331" stroke="#464646" stroke-width="1.2" stroke-miterlimit="10"/>
<path d="M370.867 352.596L354.38 450.194" stroke="#464646" stroke-width="1.2" stroke-miterlimit="10"/>
<path d="M354.38 450.196L474.968 397.333" stroke="#464646" stroke-width="1.2" stroke-miterlimit="10"/>
<path d="M354.38 450.194L443.089 516.074" stroke="#464646" stroke-width="1.2" stroke-miterlimit="10"/>
<path d="M354.379 450.194L328.356 628.961" stroke="#464646" stroke-width="1.2" stroke-miterlimit="10"/>
<path d="M328.356 628.962L443.088 516.075" stroke="#464646" stroke-width="1.2" stroke-miterlimit="10"/>
<path d="M479.302 249.96L575.598 137.178" stroke="#464646" stroke-width="1.2" stroke-miterlimit="10"/>
<path d="M428.553 207.317L575.601 137.178" stroke="#464646" stroke-width="1.2" stroke-miterlimit="10"/>
<path d="M474.105 191.401L515.711 207.317" stroke="#464646" stroke-width="1.2" stroke-miterlimit="10"/>
<path d="M474.105 191.401L479.305 249.96" stroke="#464646" stroke-width="1.2" stroke-miterlimit="10"/>
<path d="M474.102 191.401L468.891 232.608" stroke="#464646" stroke-width="1.2" stroke-miterlimit="10"/>
<path d="M474.105 191.401L439.144 239.824" stroke="#464646" stroke-width="1.2" stroke-miterlimit="10"/>
<path d="M474.104 191.401L411.333 246.575" stroke="#464646" stroke-width="1.2" stroke-miterlimit="10"/>
<path d="M75.9046 3.57449L341.364 21.7915" stroke="#464646" stroke-width="1.2" stroke-miterlimit="10"/>
<path d="M341.363 21.7887L321.416 253.856" stroke="#464646" stroke-width="1.2" stroke-miterlimit="10"/>
<path d="M321.416 253.858L401.662 191.401" stroke="#464646" stroke-width="1.2" stroke-miterlimit="10"/>
<path d="M401.662 191.399L341.363 21.7887" stroke="#464646" stroke-width="1.2" stroke-miterlimit="10"/>
<path d="M341.363 21.7887L385.613 84.2553" stroke="#464646" stroke-width="1.2" stroke-miterlimit="10"/>
<path d="M385.612 84.2555L428.549 207.316" stroke="#464646" stroke-width="1.2" stroke-miterlimit="10"/>
<path d="M341.363 21.7887L428.55 207.315" stroke="#464646" stroke-width="1.2" stroke-miterlimit="10"/>
<path d="M385.613 84.2555L321.416 253.857" stroke="#464646" stroke-width="1.2" stroke-miterlimit="10"/>
<path d="M385.61 84.2555L378.242 209.626" stroke="#464646" stroke-width="1.2" stroke-miterlimit="10"/>
<path d="M75.9046 3.57449L321.416 253.859" stroke="#464646" stroke-width="1.2" stroke-miterlimit="10"/>
<path d="M75.9046 3.57449L282.377 172.244" stroke="#464646" stroke-width="1.2" stroke-miterlimit="10"/>
<path d="M282.377 172.241L341.363 21.7887" stroke="#464646" stroke-width="1.2" stroke-miterlimit="10"/>
<path d="M75.9046 3.57449L240.733 280.861" stroke="#464646" stroke-width="1.2" stroke-miterlimit="10"/>
<path d="M240.733 280.86L271.966 227.397" stroke="#464646" stroke-width="1.2" stroke-miterlimit="10"/>
<path d="M271.966 227.397L370.867 352.597" stroke="#464646" stroke-width="1.2" stroke-miterlimit="10"/>
<path d="M271.966 227.397L381.288 253.858" stroke="#464646" stroke-width="1.2" stroke-miterlimit="10"/>
<path d="M381.287 253.857H321.416" stroke="#464646" stroke-width="1.2" stroke-miterlimit="10"/>
<path d="M321.417 253.858L271.966 227.397" stroke="#464646" stroke-width="1.2" stroke-miterlimit="10"/>
<path d="M240.733 280.86L321.417 253.857" stroke="#464646" stroke-width="1.2" stroke-miterlimit="10"/>
<path d="M93.0363 390.333L370.865 352.596" stroke="#464646" stroke-width="1.2" stroke-miterlimit="10"/>
<path d="M354.379 450.196L93.0363 390.334" stroke="#464646" stroke-width="1.2" stroke-miterlimit="10"/>
<path d="M93.0363 390.333L271.965 227.397" stroke="#464646" stroke-width="1.2" stroke-miterlimit="10"/>
<path d="M195.838 324.778L240.734 280.862" stroke="#464646" stroke-width="1.2" stroke-miterlimit="10"/>
<path d="M195.838 324.777L271.967 227.397" stroke="#464646" stroke-width="1.2" stroke-miterlimit="10"/>
<path d="M136.632 253.857L240.734 280.86" stroke="#464646" stroke-width="1.2" stroke-miterlimit="10"/>
<path d="M75.9046 3.57449L136.631 253.859" stroke="#464646" stroke-width="1.2" stroke-miterlimit="10"/>
<path d="M136.632 253.857L162.009 352.596" stroke="#464646" stroke-width="1.2" stroke-miterlimit="10"/>
<path d="M106.26 258.735L136.628 253.857" stroke="#464646" stroke-width="1.2" stroke-miterlimit="10"/>
<path d="M136.631 253.857L99.5409 336.49" stroke="#464646" stroke-width="1.2" stroke-miterlimit="10"/>
<path d="M99.5409 336.493L106.263 258.737" stroke="#464646" stroke-width="1.2" stroke-miterlimit="10"/>
<path d="M106.26 258.737L162.005 352.599" stroke="#464646" stroke-width="1.2" stroke-miterlimit="10"/>
<path d="M162.006 352.597L195.835 324.777" stroke="#464646" stroke-width="1.2" stroke-miterlimit="10"/>
<path d="M282.377 172.241L385.613 84.2555" stroke="#464646" stroke-width="1.2" stroke-miterlimit="10"/>
<path d="M439.144 239.826L574.242 137.826" stroke="#464646" stroke-width="1.2" stroke-miterlimit="10"/>
<path d="M515.711 207.319L538.729 220.231" stroke="#464646" stroke-width="1.2" stroke-miterlimit="10"/>
<path d="M328.356 628.962L460.002 601.959" stroke="#464646" stroke-width="1.2" stroke-miterlimit="10"/>
<path d="M785.332 175.086C786.977 175.086 788.307 176.423 788.308 178.06C788.308 179.705 786.97 181.036 785.332 181.036C783.696 181.035 782.358 179.697 782.358 178.06C782.358 176.423 783.688 175.086 785.332 175.086Z" fill="#333333" fill-opacity="0.9" stroke="#464646" stroke-width="1.2"/>
<path d="M617.243 246.989C618.88 246.989 620.218 248.319 620.218 249.963C620.218 251.608 618.88 252.939 617.243 252.939C615.607 252.939 614.268 251.6 614.268 249.963C614.269 248.327 615.607 246.989 617.243 246.989Z" fill="#333333" fill-opacity="0.9" stroke="#464646" stroke-width="1.2"/>
<path d="M733.278 297.73C734.923 297.73 736.252 299.067 736.252 300.704C736.252 302.349 734.915 303.68 733.278 303.68C731.639 303.68 730.294 302.339 730.294 300.704C730.294 299.069 731.631 297.73 733.278 297.73Z" fill="#333333" fill-opacity="0.9" stroke="#464646" stroke-width="1.2"/>
<path d="M586.124 401.708C587.76 401.708 589.099 403.046 589.099 404.683C589.099 406.328 587.762 407.658 586.124 407.658C584.488 407.658 583.149 406.319 583.149 404.683C583.15 403.046 584.488 401.708 586.124 401.708Z" fill="#333333" fill-opacity="0.9" stroke="#464646" stroke-width="1.2"/>
<path d="M551.743 451.288C553.38 451.288 554.718 452.626 554.719 454.263C554.719 455.908 553.381 457.238 551.743 457.238C550.107 457.238 548.769 455.899 548.769 454.263C548.769 452.627 550.107 451.288 551.743 451.288Z" fill="#333333" fill-opacity="0.9" stroke="#464646" stroke-width="1.2"/>
<path d="M617.243 427.216C618.879 427.216 620.218 428.554 620.218 430.191C620.218 431.836 618.88 433.166 617.243 433.166C615.607 433.166 614.268 431.827 614.268 430.191C614.269 428.554 615.607 427.216 617.243 427.216Z" fill="#333333" fill-opacity="0.9" stroke="#464646" stroke-width="1.2"/>
<path d="M651.946 437.084C653.582 437.084 654.921 438.422 654.922 440.059C654.922 441.705 653.592 443.034 651.946 443.034C650.301 443.034 648.972 441.696 648.972 440.059C648.972 438.423 650.31 437.085 651.946 437.084Z" fill="#333333" fill-opacity="0.9" stroke="#464646" stroke-width="1.2"/>
<path d="M623.101 420.79C624.737 420.79 626.076 422.128 626.076 423.765C626.076 425.41 624.738 426.74 623.101 426.74C621.464 426.74 620.126 425.401 620.126 423.765C620.126 422.128 621.464 420.79 623.101 420.79Z" fill="#333333" fill-opacity="0.9" stroke="#464646" stroke-width="1.2"/>
<path d="M638.929 457.403C640.572 457.403 641.904 458.735 641.905 460.378C641.905 462.021 640.572 463.353 638.929 463.353C637.287 463.353 635.955 462.021 635.955 460.378C635.955 458.735 637.287 457.404 638.929 457.403Z" fill="#333333" fill-opacity="0.9" stroke="#464646" stroke-width="1.2"/>
<path d="M789.02 513.099C790.664 513.099 791.995 514.436 791.995 516.073C791.995 517.718 790.657 519.049 789.02 519.049C787.383 519.048 786.045 517.71 786.045 516.073C786.045 514.436 787.375 513.099 789.02 513.099Z" fill="#333333" fill-opacity="0.9" stroke="#464646" stroke-width="1.2"/>
<path d="M633.19 578.487C634.835 578.487 636.165 579.824 636.165 581.462C636.165 583.107 634.827 584.437 633.19 584.437C631.553 584.437 630.215 583.098 630.215 581.462C630.216 579.824 631.545 578.487 633.19 578.487Z" fill="#333333" fill-opacity="0.9" stroke="#464646" stroke-width="1.2"/>
<path d="M460.003 598.985C461.648 598.985 462.978 600.322 462.979 601.959C462.979 603.604 461.641 604.935 460.003 604.935C458.367 604.934 457.029 603.596 457.029 601.959C457.029 600.322 458.358 598.985 460.003 598.985Z" fill="#333333" fill-opacity="0.9" stroke="#464646" stroke-width="1.2"/>
<path d="M496.114 652.993C497.759 652.993 499.09 654.33 499.09 655.968C499.09 657.613 497.752 658.943 496.114 658.943C494.478 658.943 493.14 657.604 493.14 655.968C493.14 654.33 494.47 652.993 496.114 652.993Z" fill="#333333" fill-opacity="0.9" stroke="#464646" stroke-width="1.2"/>
<path d="M514.728 785.688C514.549 783.76 516.21 782.17 518.165 782.461V782.462C519.416 782.651 520.441 783.674 520.638 784.929C520.955 786.948 519.241 788.659 517.214 788.349H517.213C515.968 788.15 514.94 787.125 514.751 785.877V785.876L514.728 785.688Z" fill="#333333" fill-opacity="0.9" stroke="#464646" stroke-width="1.2"/>
<path d="M532.222 584.666C533.867 584.666 535.197 586.004 535.197 587.641C535.197 589.286 533.859 590.616 532.222 590.616C530.585 590.616 529.247 589.277 529.247 587.641C529.248 586.004 530.577 584.667 532.222 584.666Z" fill="#333333" fill-opacity="0.9" stroke="#464646" stroke-width="1.2"/>
<path d="M532.188 574.908C533.832 574.908 535.163 576.246 535.163 577.883C535.163 579.528 533.825 580.858 532.188 580.858C530.551 580.858 529.213 579.519 529.213 577.883C529.213 576.246 530.543 574.909 532.188 574.908Z" fill="#333333" fill-opacity="0.9" stroke="#464646" stroke-width="1.2"/>
<path d="M582.539 513.099C584.184 513.099 585.514 514.436 585.515 516.073C585.515 517.718 584.177 519.049 582.539 519.049C580.903 519.048 579.565 517.709 579.565 516.073C579.565 514.436 580.895 513.099 582.539 513.099Z" fill="#333333" fill-opacity="0.9" stroke="#464646" stroke-width="1.2"/>
<path d="M575.494 498.782C577.137 498.782 578.47 500.114 578.47 501.757C578.47 503.399 577.137 504.732 575.494 504.732C573.852 504.732 572.52 503.399 572.52 501.757C572.52 500.114 573.852 498.782 575.494 498.782Z" fill="#333333" fill-opacity="0.9" stroke="#464646" stroke-width="1.2"/>
<path d="M443.086 513.099C444.731 513.099 446.062 514.436 446.062 516.073C446.062 517.718 444.724 519.049 443.086 519.049C441.45 519.048 440.112 517.709 440.112 516.073C440.112 514.436 441.442 513.099 443.086 513.099Z" fill="#333333" fill-opacity="0.9" stroke="#464646" stroke-width="1.2"/>
<path d="M474.968 394.358C476.613 394.358 477.944 395.695 477.944 397.333C477.944 398.978 476.606 400.308 474.968 400.308C473.332 400.308 471.994 398.969 471.994 397.333C471.994 395.695 473.324 394.358 474.968 394.358Z" fill="#333333" fill-opacity="0.9" stroke="#464646" stroke-width="1.2"/>
<path d="M532.222 379.877C533.868 379.877 535.197 381.206 535.197 382.852C535.197 384.497 533.859 385.827 532.222 385.827C530.585 385.827 529.247 384.488 529.247 382.852C529.248 381.214 530.577 379.877 532.222 379.877Z" fill="#333333" fill-opacity="0.9" stroke="#464646" stroke-width="1.2"/>
<path d="M478.553 304.887C480.198 304.887 481.528 306.224 481.528 307.862C481.528 309.507 480.19 310.837 478.553 310.837C476.916 310.837 475.578 309.498 475.578 307.862C475.578 306.224 476.908 304.887 478.553 304.887Z" fill="#333333" fill-opacity="0.9" stroke="#464646" stroke-width="1.2"/>
<path d="M551.743 274.483C553.386 274.483 554.718 275.815 554.719 277.458C554.719 279.1 553.386 280.433 551.743 280.433C550.101 280.433 548.769 279.1 548.769 277.458C548.769 275.815 550.101 274.483 551.743 274.483Z" fill="#333333" fill-opacity="0.9" stroke="#464646" stroke-width="1.2"/>
<path d="M479.312 246.989C480.958 246.989 482.287 248.318 482.287 249.963C482.287 251.608 480.95 252.939 479.312 252.939C477.676 252.939 476.337 251.6 476.337 249.963C476.338 248.326 477.667 246.989 479.312 246.989Z" fill="#333333" fill-opacity="0.9" stroke="#464646" stroke-width="1.2"/>
<path d="M474.105 188.428C475.749 188.428 477.08 189.765 477.08 191.403C477.08 193.048 475.742 194.378 474.105 194.378C472.468 194.378 471.13 193.039 471.13 191.403C471.13 189.765 472.46 188.428 474.105 188.428Z" fill="#333333" fill-opacity="0.9" stroke="#464646" stroke-width="1.2"/>
<path d="M574.241 134.849C575.887 134.849 577.216 136.178 577.217 137.824C577.217 139.469 575.879 140.799 574.241 140.799C572.605 140.799 571.267 139.46 571.267 137.824C571.267 136.187 572.596 134.85 574.241 134.849Z" fill="#333333" fill-opacity="0.9" stroke="#464646" stroke-width="1.2"/>
<path d="M381.284 250.885C382.927 250.885 384.259 252.217 384.26 253.859C384.26 255.502 382.927 256.835 381.284 256.835C379.642 256.835 378.31 255.502 378.31 253.859C378.31 252.217 379.642 250.885 381.284 250.885Z" fill="#333333" fill-opacity="0.9" stroke="#464646" stroke-width="1.2"/>
<path d="M401.659 188.428C403.304 188.428 404.634 189.765 404.635 191.403C404.635 193.048 403.297 194.378 401.659 194.378C400.023 194.378 398.685 193.039 398.685 191.403C398.685 189.765 400.015 188.428 401.659 188.428Z" fill="#333333" fill-opacity="0.9" stroke="#464646" stroke-width="1.2"/>
<path d="M385.614 81.2829C387.258 81.2829 388.589 82.6201 388.589 84.2574C388.589 85.9024 387.251 87.2329 385.614 87.2329C383.976 87.2327 382.639 85.9023 382.639 84.2574C382.639 82.6117 383.968 81.2832 385.614 81.2829Z" fill="#333333" fill-opacity="0.9" stroke="#464646" stroke-width="1.2"/>
<path d="M341.375 18.8181C343.02 18.8181 344.35 20.1552 344.351 21.7926C344.351 23.4376 343.013 24.7681 341.375 24.7681C339.739 24.7678 338.401 23.429 338.401 21.7926C338.401 20.1554 339.731 18.8183 341.375 18.8181Z" fill="#333333" fill-opacity="0.9" stroke="#464646" stroke-width="1.2"/>
<path d="M75.9046 0.599982C77.5494 0.599982 78.8798 1.93711 78.8801 3.57449C78.8801 5.2195 77.5422 6.54997 75.9046 6.54997C74.2682 6.54971 72.9301 5.21088 72.9301 3.57449C72.9303 1.93727 74.2599 0.600235 75.9046 0.599982Z" fill="#333333" fill-opacity="0.9" stroke="#464646" stroke-width="1.2"/>
<path d="M106.262 255.759C107.905 255.759 109.238 257.091 109.238 258.733C109.238 260.376 107.905 261.709 106.262 261.709C104.62 261.708 103.288 260.376 103.288 258.733C103.288 257.091 104.62 255.759 106.262 255.759Z" fill="#333333" fill-opacity="0.9" stroke="#464646" stroke-width="1.2"/>
<path d="M136.63 251.158C138.275 251.158 139.606 252.495 139.606 254.133C139.606 255.778 138.268 257.108 136.63 257.108C134.994 257.108 133.656 255.769 133.656 254.133C133.656 252.495 134.986 251.158 136.63 251.158Z" fill="#333333" fill-opacity="0.9" stroke="#464646" stroke-width="1.2"/>
<path d="M271.966 224.423C273.611 224.423 274.942 225.76 274.942 227.397C274.942 229.042 273.604 230.373 271.966 230.373C270.329 230.373 268.992 229.042 268.992 227.397C268.992 225.752 270.321 224.423 271.966 224.423Z" fill="#333333" fill-opacity="0.9" stroke="#464646" stroke-width="1.2"/>
<path d="M99.5409 332.134C101.186 332.134 102.516 333.471 102.516 335.109C102.516 336.754 101.178 338.084 99.5409 338.084C97.9045 338.084 96.5663 336.745 96.5663 335.109C96.5666 333.472 97.8962 332.135 99.5409 332.134Z" fill="#333333" fill-opacity="0.9" stroke="#464646" stroke-width="1.2"/>
<path d="M162.007 349.622C163.652 349.622 164.983 350.959 164.983 352.596C164.983 354.241 163.645 355.572 162.007 355.572C160.371 355.571 159.033 354.232 159.033 352.596C159.033 350.959 160.363 349.622 162.007 349.622Z" fill="#333333" fill-opacity="0.9" stroke="#464646" stroke-width="1.2"/>
<path d="M370.866 349.622C372.511 349.622 373.841 350.959 373.841 352.596C373.841 354.241 372.503 355.572 370.866 355.572C369.229 355.571 367.891 354.232 367.891 352.596C367.891 350.959 369.221 349.622 370.866 349.622Z" fill="#333333" fill-opacity="0.9" stroke="#464646" stroke-width="1.2"/>
<path d="M93.0363 387.362C94.6812 387.362 96.0115 388.699 96.0118 390.336C96.0118 391.981 94.6739 393.312 93.0363 393.312C91.3989 393.311 90.0618 391.981 90.0618 390.336C90.0621 388.69 91.3906 387.362 93.0363 387.362Z" fill="#333333" fill-opacity="0.9" stroke="#464646" stroke-width="1.2"/>
<path d="M93.0363 387.362C94.6812 387.362 96.0115 388.699 96.0118 390.336C96.0118 391.981 94.6739 393.312 93.0363 393.312C91.3989 393.311 90.0618 391.981 90.0618 390.336C90.0621 388.69 91.3906 387.362 93.0363 387.362Z" fill="#333333" fill-opacity="0.9" stroke="#464646" stroke-width="1.2"/>
<path d="M354.38 447.222C356.026 447.222 357.356 448.55 357.356 450.196C357.356 451.841 356.018 453.172 354.38 453.172C352.744 453.171 351.406 451.833 351.406 450.196C351.406 448.559 352.736 447.222 354.38 447.222Z" fill="#333333" fill-opacity="0.9" stroke="#464646" stroke-width="1.2"/>
<path d="M282.375 169.268C284.021 169.268 285.35 170.597 285.35 172.243C285.35 173.888 284.012 175.218 282.375 175.218C280.738 175.218 279.4 173.879 279.4 172.243C279.4 170.605 280.73 169.268 282.375 169.268Z" fill="#333333" fill-opacity="0.9" stroke="#464646" stroke-width="1.2"/>
<path d="M630.696 337.426C632.332 337.426 633.671 338.764 633.671 340.4C633.671 342.045 632.333 343.376 630.696 343.376C629.059 343.376 627.721 342.037 627.721 340.4C627.721 338.764 629.059 337.426 630.696 337.426Z" fill="#333333" fill-opacity="0.9" stroke="#464646" stroke-width="1.2"/>
<path d="M627.113 304.887C628.749 304.887 630.088 306.225 630.088 307.862C630.088 309.507 628.75 310.837 627.113 310.837C625.476 310.837 624.138 309.498 624.138 307.862C624.139 306.226 625.477 304.887 627.113 304.887Z" fill="#333333" fill-opacity="0.9" stroke="#464646" stroke-width="1.2"/>
<path d="M376.067 663.123L329.869 628.962" stroke="#464646" stroke-width="1.2" stroke-miterlimit="10"/>
<path d="M3.00187 633.394L275.171 762.474" stroke="#464646" stroke-width="1.2" stroke-miterlimit="10"/>
<path d="M274.914 762.938L403.727 488.703" stroke="#464646" stroke-width="1.2" stroke-miterlimit="10"/>
<path d="M274.914 762.938L355.541 714.772" stroke="#464646" stroke-width="1.2" stroke-miterlimit="10"/>
<path d="M355.539 714.769L473.427 597.023" stroke="#464646" stroke-width="1.2" stroke-miterlimit="10"/>
<path d="M274.914 762.935L473.429 597.023" stroke="#464646" stroke-width="1.2" stroke-miterlimit="10"/>
<path d="M355.539 714.772L403.725 488.703" stroke="#464646" stroke-width="1.2" stroke-miterlimit="10"/>
<path d="M355.539 714.771L442.775 518.822" stroke="#464646" stroke-width="1.2" stroke-miterlimit="10"/>
<path d="M2.00124 633.394L258.16 535.333" stroke="#464646" stroke-width="1.2" stroke-miterlimit="10"/>
<path d="M3.00187 633.394L368.229 355.221" stroke="#464646" stroke-width="1.2" stroke-miterlimit="10"/>
<path d="M2.00124 633.394L192.119 437.272" stroke="#464646" stroke-width="1.2" stroke-miterlimit="10"/>
<path d="M330.205 632.393L355.221 714.444" stroke="#464646" stroke-width="1.2" stroke-miterlimit="10"/>
<path d="M275.549 758.347C277.194 758.347 278.524 759.684 278.524 761.321C278.524 762.966 277.186 764.297 275.549 764.297C273.912 764.297 272.574 762.958 272.574 761.321C272.574 759.684 273.904 758.347 275.549 758.347Z" fill="#333333" fill-opacity="0.9" stroke="#464646" stroke-width="1.2"/>
<path d="M12.0075 462.287L104.065 329.205" stroke="#464646" stroke-width="1.2" stroke-miterlimit="10"/>
<path d="M189.401 437.272L11.007 462.287" stroke="#464646" stroke-width="1.2" stroke-miterlimit="10"/>
<path d="M12.0075 462.287L163.101 354.22" stroke="#464646" stroke-width="1.2" stroke-miterlimit="10"/>
<path d="M184.114 509.316L11.0068 462.287" stroke="#464646" stroke-width="1.2" stroke-miterlimit="10"/>
<path d="M355.547 711.795C357.192 711.795 358.522 713.132 358.523 714.77C358.523 716.415 357.185 717.745 355.547 717.745C353.911 717.745 352.573 716.406 352.573 714.77C352.573 713.132 353.902 711.795 355.547 711.795Z" fill="#333333" fill-opacity="0.9" stroke="#464646" stroke-width="1.2"/>
<path d="M3.00187 633.394L355.221 711.442" stroke="#464646" stroke-width="1.2" stroke-miterlimit="10"/>
<path d="M160.761 713.841L192.129 437.46" stroke="#464646" stroke-width="1.2" stroke-miterlimit="10"/>
<path d="M263.164 481.299L161.1 713.443" stroke="#464646" stroke-width="1.2" stroke-miterlimit="10"/>
<path d="M160.961 713.819L329.868 628.962" stroke="#464646" stroke-width="1.2" stroke-miterlimit="10"/>
<path d="M159.776 709.347C161.294 708.714 163.035 709.433 163.669 710.953C164.301 712.472 163.582 714.213 162.061 714.846C160.543 715.479 158.803 714.759 158.169 713.239C157.537 711.721 158.255 709.98 159.776 709.347Z" fill="#333333" fill-opacity="0.9" stroke="#464646" stroke-width="1.2"/>
<path d="M329.878 625.985C331.523 625.985 332.854 627.322 332.854 628.959C332.854 630.604 331.516 631.935 329.878 631.935C328.242 631.935 326.904 630.596 326.904 628.959C326.904 627.322 328.234 625.985 329.878 625.985Z" fill="#333333" fill-opacity="0.9" stroke="#464646" stroke-width="1.2"/>
<path d="M11.5795 458.885C13.2243 458.885 14.5547 460.222 14.5549 461.859C14.5549 463.504 13.2171 464.835 11.5795 464.835C9.94208 464.834 8.60496 463.504 8.60496 461.859C8.60521 460.214 9.93378 458.885 11.5795 458.885Z" fill="#333333" fill-opacity="0.9" stroke="#464646" stroke-width="1.2"/>
<path d="M3.57449 629.991C5.21934 629.991 6.54971 631.328 6.54997 632.966C6.54997 634.611 5.21208 635.941 3.57449 635.941C1.93711 635.941 0.599982 634.61 0.599982 632.966C0.600238 631.32 1.92881 629.991 3.57449 629.991Z" fill="#333333" fill-opacity="0.9" stroke="#464646" stroke-width="1.2"/>
<path d="M192.313 434.67C193.956 434.67 195.289 436.002 195.289 437.645C195.289 439.288 193.956 440.62 192.313 440.62C190.671 440.62 189.339 439.288 189.339 437.645C189.339 436.003 190.671 434.671 192.313 434.67Z" fill="#333333" fill-opacity="0.9" stroke="#464646" stroke-width="1.2"/>
<path d="M182.826 505.845C184.469 505.845 185.802 507.177 185.802 508.819C185.802 510.462 184.469 511.795 182.826 511.795C181.184 511.795 179.852 510.462 179.852 508.819C179.852 507.177 181.184 505.845 182.826 505.845Z" fill="#333333" fill-opacity="0.9" stroke="#464646" stroke-width="1.2"/>
</svg>
